<svg width="83" height="18" viewBox="0 0 83 18" fill="none" xmlns="http://www.w3.org/2000/svg">
<path d="M30.2822 2.13281V15H28.6562V4.16309L25.3779 5.3584V3.89062L30.0273 2.13281H30.2822Z" fill="#373737"/>
<path d="M39.6787 15.8955H38L43.0361 2H44.7148L39.6787 15.8955Z" fill="#373737"/>
<path d="M52.1201 8.90918L50.8193 8.5752L51.4609 2.20312H58.0264V3.70605H52.8408L52.4541 7.18652C52.6885 7.05176 52.9844 6.92578 53.3418 6.80859C53.7051 6.69141 54.1211 6.63281 54.5898 6.63281C55.1816 6.63281 55.7119 6.73535 56.1807 6.94043C56.6494 7.13965 57.0479 7.42676 57.376 7.80176C57.71 8.17676 57.9648 8.62793 58.1406 9.15527C58.3164 9.68262 58.4043 10.2715 58.4043 10.9219C58.4043 11.5371 58.3193 12.1025 58.1494 12.6182C57.9854 13.1338 57.7363 13.585 57.4023 13.9717C57.0684 14.3525 56.6465 14.6484 56.1367 14.8594C55.6328 15.0703 55.0381 15.1758 54.3525 15.1758C53.8369 15.1758 53.3477 15.1055 52.8848 14.9648C52.4277 14.8184 52.0176 14.5986 51.6543 14.3057C51.2969 14.0068 51.0039 13.6377 50.7754 13.1982C50.5527 12.7529 50.4121 12.2314 50.3535 11.6338H51.9004C51.9707 12.1143 52.1113 12.5186 52.3223 12.8467C52.5332 13.1748 52.8086 13.4238 53.1484 13.5938C53.4941 13.7578 53.8955 13.8398 54.3525 13.8398C54.7393 13.8398 55.082 13.7725 55.3809 13.6377C55.6797 13.5029 55.9316 13.3096 56.1367 13.0576C56.3418 12.8057 56.4971 12.501 56.6025 12.1436C56.7139 11.7861 56.7695 11.3848 56.7695 10.9395C56.7695 10.5352 56.7139 10.1602 56.6025 9.81445C56.4912 9.46875 56.3242 9.16699 56.1016 8.90918C55.8848 8.65137 55.6182 8.45215 55.3018 8.31152C54.9854 8.16504 54.6221 8.0918 54.2119 8.0918C53.667 8.0918 53.2539 8.16504 52.9727 8.31152C52.6973 8.45801 52.4131 8.65723 52.1201 8.90918Z" fill="#373737"/>
<path d="M7.65685 3.34314L2 8.99999L7.65685 14.6568" stroke="#373737" stroke-width="2"/>
<path d="M75.3431 3.34314L81 8.99999L75.3431 14.6568" stroke="#373737" stroke-width="2"/>
</svg>
